<svg width="36" height="36" viewBox="0 0 36 36" fill="none" xmlns="http://www.w3.org/2000/svg">
<path d="M21.6787 19.8262C22.7033 19.8262 23.5341 20.6571 23.5342 21.6816V34.1455C23.534 35.17 22.7032 36 21.6787 36C20.6544 35.9997 19.8244 35.1698 19.8242 34.1455V21.6816C19.8243 20.6573 20.6544 19.8264 21.6787 19.8262ZM15.4951 24.8516C16.5196 24.8516 17.3505 25.6825 17.3506 26.707V30.8945C17.3506 31.9191 16.5197 32.75 15.4951 32.75C14.4706 32.7499 13.6396 31.9191 13.6396 30.8945V26.707C13.6398 25.6826 14.4707 24.8516 15.4951 24.8516ZM27.0547 25.998C28.0792 25.9981 28.9102 26.829 28.9102 27.8535C28.9099 28.8778 28.0791 29.7079 27.0547 29.708H26.7197C25.6955 29.7078 24.8645 28.8778 24.8643 27.8535C24.8643 26.8291 25.6953 25.9983 26.7197 25.998H27.0547ZM9.31152 24.8525C10.3358 24.8527 11.1658 25.6827 11.166 26.707V27.0576C11.1658 28.0819 10.3358 28.9119 9.31152 28.9121C8.28711 28.912 7.45624 28.082 7.45605 27.0576V26.707C7.45627 25.6827 8.28713 24.8526 9.31152 24.8525ZM30.8779 19.8135C31.9025 19.8135 32.7333 20.6444 32.7334 21.6689C32.7333 22.6935 31.9025 23.5244 30.8779 23.5244H26.7197C25.6954 23.5242 24.8643 22.6933 24.8643 21.6689C24.8644 20.6446 25.6954 19.8137 26.7197 19.8135H30.8779ZM14.2598 19.7793C15.2842 19.7793 16.115 20.6094 16.1152 21.6338C16.115 22.6581 15.2842 23.4892 14.2598 23.4893H1.85547C0.831151 23.4891 0.000262478 22.6581 0 21.6338C0.000244008 20.6095 0.83114 19.7794 1.85547 19.7793H14.2598ZM34.1162 13.6299C35.1408 13.6299 35.9717 14.4607 35.9717 15.4854C35.9715 16.5098 35.1407 17.3398 34.1162 17.3398H21.7119C20.6879 17.3394 19.8576 16.5095 19.8574 15.4854C19.8574 14.461 20.6877 13.6304 21.7119 13.6299H34.1162ZM9.25293 13.5947C10.2774 13.5949 11.1074 14.4257 11.1074 15.4502C11.1072 16.4744 10.2772 17.3055 9.25293 17.3057H5.09375C4.0695 17.3054 3.23953 16.4744 3.23926 15.4502C3.23926 14.4257 4.06934 13.595 5.09375 13.5947H9.25293ZM15.4688 0C16.4932 0 17.324 0.83108 17.3242 1.85547V14.3184C17.3242 15.343 16.4933 16.1738 15.4688 16.1738C14.4443 16.1736 13.6143 15.3428 13.6143 14.3184V1.85547C13.6145 0.83121 14.4445 0.000211099 15.4688 0ZM21.6533 3.25C22.6775 3.25025 23.5075 4.08129 23.5078 5.10547V9.29297C23.5078 10.3174 22.6777 11.1482 21.6533 11.1484C20.6288 11.1484 19.7979 10.3175 19.7979 9.29297V5.10547C19.7982 4.08117 20.629 3.25007 21.6533 3.25ZM27.8369 7.08789C28.8613 7.08794 29.6921 7.919 29.6924 8.94336V9.29297C29.6924 10.3175 28.8615 11.1484 27.8369 11.1484C26.8124 11.1484 25.9814 10.3175 25.9814 9.29297V8.94336C25.9817 7.91901 26.8125 7.08796 27.8369 7.08789ZM9.25293 7.41113C10.2774 7.41133 11.1074 8.24212 11.1074 9.2666C11.1069 10.2906 10.2771 11.1209 9.25293 11.1211H8.91797C7.89376 11.121 7.06302 10.2907 7.0625 9.2666C7.0625 8.24205 7.89344 7.41122 8.91797 7.41113H9.25293Z" fill="#0055EA"/>
</svg>
