<svg width="139" height="39" viewBox="0 0 139 39" fill="none" xmlns="http://www.w3.org/2000/svg">
<path d="M21.6787 21.8262C22.7033 21.8262 23.5341 22.6571 23.5342 23.6816V36.1455C23.534 37.17 22.7032 38 21.6787 38C20.6544 37.9997 19.8244 37.1698 19.8242 36.1455V23.6816C19.8243 22.6573 20.6544 21.8264 21.6787 21.8262ZM15.4951 26.8516C16.5196 26.8516 17.3505 27.6825 17.3506 28.707V32.8945C17.3506 33.9191 16.5197 34.75 15.4951 34.75C14.4706 34.7499 13.6396 33.9191 13.6396 32.8945V28.707C13.6398 27.6826 14.4707 26.8516 15.4951 26.8516ZM27.0547 27.998C28.0792 27.9981 28.9102 28.829 28.9102 29.8535C28.9099 30.8778 28.0791 31.7079 27.0547 31.708H26.7197C25.6955 31.7078 24.8645 30.8778 24.8643 29.8535C24.8643 28.8291 25.6953 27.9983 26.7197 27.998H27.0547ZM9.31152 26.8525C10.3358 26.8527 11.1658 27.6827 11.166 28.707V29.0576C11.1658 30.0819 10.3358 30.9119 9.31152 30.9121C8.28711 30.912 7.45624 30.082 7.45605 29.0576V28.707C7.45627 27.6827 8.28713 26.8526 9.31152 26.8525ZM30.8779 21.8135C31.9025 21.8135 32.7333 22.6444 32.7334 23.6689C32.7333 24.6935 31.9025 25.5244 30.8779 25.5244H26.7197C25.6954 25.5242 24.8643 24.6933 24.8643 23.6689C24.8644 22.6446 25.6954 21.8137 26.7197 21.8135H30.8779ZM14.2598 21.7793C15.2842 21.7793 16.115 22.6094 16.1152 23.6338C16.115 24.6581 15.2842 25.4892 14.2598 25.4893H1.85547C0.831151 25.4891 0.000262478 24.6581 0 23.6338C0.000244008 22.6095 0.83114 21.7794 1.85547 21.7793H14.2598ZM34.1162 15.6299C35.1408 15.6299 35.9717 16.4607 35.9717 17.4854C35.9715 18.5098 35.1407 19.3398 34.1162 19.3398H21.7119C20.6879 19.3394 19.8576 18.5095 19.8574 17.4854C19.8574 16.461 20.6877 15.6304 21.7119 15.6299H34.1162ZM9.25293 15.5947C10.2774 15.5949 11.1074 16.4257 11.1074 17.4502C11.1072 18.4744 10.2772 19.3055 9.25293 19.3057H5.09375C4.0695 19.3054 3.23953 18.4744 3.23926 17.4502C3.23926 16.4257 4.06934 15.595 5.09375 15.5947H9.25293ZM15.4688 2C16.4932 2 17.324 2.83108 17.3242 3.85547V16.3184C17.3242 17.343 16.4933 18.1738 15.4688 18.1738C14.4443 18.1736 13.6143 17.3428 13.6143 16.3184V3.85547C13.6145 2.83121 14.4445 2.00021 15.4688 2ZM21.6533 5.25C22.6775 5.25025 23.5075 6.08129 23.5078 7.10547V11.293C23.5078 12.3174 22.6777 13.1482 21.6533 13.1484C20.6288 13.1484 19.7979 12.3175 19.7979 11.293V7.10547C19.7982 6.08117 20.629 5.25007 21.6533 5.25ZM27.8369 9.08789C28.8613 9.08794 29.6921 9.919 29.6924 10.9434V11.293C29.6924 12.3175 28.8615 13.1484 27.8369 13.1484C26.8124 13.1484 25.9814 12.3175 25.9814 11.293V10.9434C25.9817 9.91901 26.8125 9.08796 27.8369 9.08789ZM9.25293 9.41113C10.2774 9.41133 11.1074 10.2421 11.1074 11.2666C11.1069 12.2906 10.2771 13.1209 9.25293 13.1211H8.91797C7.89376 13.121 7.06302 12.2907 7.0625 11.2666C7.0625 10.2421 7.89344 9.41122 8.91797 9.41113H9.25293Z" fill="#0055EA"/>
<path d="M101.601 24.8107C101.206 24.8107 100.902 24.6926 100.689 24.4563C100.486 24.2201 100.385 23.8834 100.385 23.4463V13.3643C100.385 12.9155 100.486 12.5788 100.689 12.3544C100.902 12.1181 101.206 12 101.601 12C101.985 12 102.278 12.1181 102.481 12.3544C102.694 12.5788 102.801 12.9155 102.801 13.3643V19.5482H102.833L105.153 16.6955C105.387 16.4002 105.601 16.1816 105.793 16.0399C105.995 15.8863 106.262 15.8095 106.593 15.8095C106.923 15.8095 107.174 15.904 107.345 16.093C107.526 16.282 107.617 16.5124 107.617 16.7841C107.627 17.0439 107.526 17.3097 107.313 17.5814L104.865 20.6113V19.6014L107.585 23.0742C107.787 23.3459 107.873 23.6176 107.841 23.8893C107.819 24.161 107.713 24.3854 107.521 24.5626C107.329 24.728 107.083 24.8107 106.785 24.8107C106.422 24.8107 106.129 24.7339 105.905 24.5803C105.691 24.4268 105.473 24.1905 105.249 23.8716L102.833 20.8948H102.801V23.4463C102.801 24.3559 102.401 24.8107 101.601 24.8107Z" fill="#0F172A"/>
<path d="M92.3849 24.8106C91.9903 24.8106 91.6863 24.6925 91.4729 24.4563C91.2703 24.22 91.1689 23.8833 91.1689 23.4463V17.1561C91.1689 16.7191 91.2703 16.3883 91.4729 16.1639C91.6863 15.9276 91.9796 15.8095 92.3529 15.8095C92.7369 15.8095 93.0303 15.9276 93.2329 16.1639C93.4356 16.3883 93.5369 16.7191 93.5369 17.1561V18.1661L93.3609 17.5814C93.6063 17.0026 93.9689 16.5596 94.4489 16.2525C94.9396 15.9335 95.4943 15.774 96.1129 15.774C96.7423 15.774 97.2596 15.9099 97.6649 16.1816C98.0703 16.4415 98.3743 16.8431 98.5769 17.3865C98.7796 17.918 98.8809 18.5972 98.8809 19.4241V23.4463C98.8809 23.8833 98.7743 24.22 98.5609 24.4563C98.3583 24.6925 98.0596 24.8106 97.6649 24.8106C97.2809 24.8106 96.9823 24.6925 96.7689 24.4563C96.5663 24.22 96.4649 23.8833 96.4649 23.4463V19.5482C96.4649 18.9457 96.3636 18.5146 96.1609 18.2547C95.9689 17.983 95.6703 17.8471 95.2649 17.8471C94.7529 17.8471 94.3423 18.0243 94.0329 18.3787C93.7343 18.7331 93.5849 19.2056 93.5849 19.7962V23.4463C93.5849 24.3558 93.1849 24.8106 92.3849 24.8106Z" fill="#0F172A"/>
<path d="M85.2189 24.8461C84.6429 24.8461 84.1256 24.722 83.6669 24.474C83.2083 24.2259 82.8509 23.8893 82.5949 23.464C82.3389 23.0388 82.2109 22.5603 82.2109 22.0288C82.2109 21.3909 82.3603 20.8889 82.6589 20.5227C82.9576 20.1447 83.4429 19.8789 84.1149 19.7253C84.7869 19.56 85.6776 19.4773 86.7869 19.4773H87.6349V20.8593H86.8029C86.2589 20.8593 85.8163 20.8948 85.4749 20.9657C85.1443 21.0247 84.9043 21.131 84.7549 21.2846C84.6163 21.4382 84.5469 21.6508 84.5469 21.9225C84.5469 22.2532 84.6483 22.5249 84.8509 22.7375C85.0643 22.9502 85.3683 23.0565 85.7629 23.0565C86.0723 23.0565 86.3443 22.9797 86.5789 22.8261C86.8243 22.6608 87.0163 22.4422 87.1549 22.1705C87.2936 21.887 87.3629 21.5681 87.3629 21.2137V19.1761C87.3629 18.6563 87.2563 18.2901 87.0429 18.0775C86.8296 17.8531 86.4669 17.7408 85.9549 17.7408C85.6669 17.7408 85.3523 17.7822 85.0109 17.8649C84.6803 17.9357 84.3123 18.0598 83.9069 18.237C83.6723 18.3551 83.4643 18.3846 83.2829 18.3256C83.1016 18.2547 82.9629 18.1366 82.8669 17.9712C82.7709 17.794 82.7229 17.605 82.7229 17.4042C82.7229 17.1916 82.7763 16.9907 82.8829 16.8017C82.9896 16.6009 83.1656 16.4533 83.4109 16.3588C83.9123 16.1343 84.3816 15.9808 84.8189 15.8981C85.2669 15.8154 85.6776 15.774 86.0509 15.774C86.8723 15.774 87.5443 15.9099 88.0669 16.1816C88.6003 16.4415 89.0003 16.849 89.2669 17.4042C89.5336 17.9476 89.6669 18.6504 89.6669 19.5127V23.4463C89.6669 23.8833 89.5709 24.22 89.3789 24.4563C89.1869 24.6925 88.9096 24.8106 88.5469 24.8106C88.1843 24.8106 87.9016 24.6925 87.6989 24.4563C87.5069 24.22 87.4109 23.8833 87.4109 23.4463V22.7907L87.5229 22.897C87.4589 23.2986 87.3203 23.6471 87.1069 23.9424C86.9043 24.2259 86.6429 24.4503 86.3229 24.6157C86.0029 24.7693 85.6349 24.8461 85.2189 24.8461Z" fill="#0F172A"/>
<path d="M77.5957 24.8106C77.1903 24.8106 76.881 24.6925 76.6677 24.4563C76.4543 24.22 76.3477 23.8834 76.3477 23.4463V17.1561C76.3477 16.7191 76.449 16.3883 76.6517 16.1639C76.865 15.9276 77.1583 15.8095 77.5317 15.8095C77.9157 15.8095 78.209 15.9276 78.4117 16.1639C78.6143 16.3883 78.7157 16.7191 78.7157 17.1561V18.0775H78.5557C78.6837 17.3688 78.9663 16.8195 79.4037 16.4297C79.841 16.0398 80.4063 15.8213 81.0997 15.7741C81.3663 15.7504 81.569 15.8272 81.7077 16.0044C81.857 16.1698 81.937 16.4474 81.9477 16.8372C81.969 17.2034 81.8997 17.4928 81.7397 17.7054C81.5903 17.918 81.3343 18.048 80.9717 18.0952L80.6037 18.1307C79.9957 18.1897 79.5423 18.3846 79.2437 18.7154C78.9557 19.0461 78.8117 19.5245 78.8117 20.1506V23.4463C78.8117 23.8834 78.705 24.22 78.4917 24.4563C78.289 24.6925 77.9903 24.8106 77.5957 24.8106Z" fill="#0F172A"/>
<path d="M69.1507 24.8106C68.7454 24.8106 68.4307 24.6866 68.2067 24.4385C67.9934 24.1905 67.8867 23.8302 67.8867 23.3577V13.5946C67.8867 13.134 67.9987 12.7796 68.2227 12.5315C68.4467 12.2835 68.7667 12.1594 69.1827 12.1594H74.6547C74.9747 12.1594 75.2147 12.2539 75.3747 12.4429C75.5454 12.6201 75.6307 12.88 75.6307 13.2226C75.6307 13.5769 75.5454 13.8486 75.3747 14.0376C75.2147 14.2148 74.9747 14.3034 74.6547 14.3034H70.3667V17.351H74.3027C74.6227 17.351 74.8681 17.4455 75.0387 17.6345C75.2094 17.8117 75.2947 18.0716 75.2947 18.4142C75.2947 18.7567 75.2094 19.0225 75.0387 19.2115C74.8681 19.4005 74.6227 19.495 74.3027 19.495H70.3667V23.3577C70.3667 24.3263 69.9614 24.8106 69.1507 24.8106Z" fill="#0F172A"/>
<path d="M61.5912 28C61.3139 28 61.0845 27.9173 60.9032 27.7519C60.7219 27.5865 60.6152 27.368 60.5832 27.0963C60.5512 26.8364 60.5939 26.5588 60.7112 26.2635L61.7832 23.6412V24.7397L58.9512 17.5459C58.8445 17.2388 58.8072 16.9553 58.8392 16.6954C58.8819 16.4237 58.9992 16.2111 59.1912 16.0575C59.3939 15.8921 59.6712 15.8094 60.0232 15.8094C60.3112 15.8094 60.5405 15.8862 60.7112 16.0398C60.8925 16.1815 61.0579 16.4591 61.2072 16.8726L63.0952 22.1882H62.5832L64.5352 16.8549C64.6845 16.4532 64.8499 16.1815 65.0312 16.0398C65.2232 15.8862 65.4792 15.8094 65.7992 15.8094C66.0765 15.8094 66.2952 15.8921 66.4552 16.0575C66.6259 16.2111 66.7272 16.4178 66.7592 16.6777C66.8019 16.9375 66.7592 17.221 66.6312 17.5282L62.8712 26.9723C62.7112 27.3739 62.5299 27.6456 62.3272 27.7873C62.1352 27.9291 61.8899 28 61.5912 28Z" fill="#0F172A"/>
<path d="M47.0917 24.8107C46.729 24.8107 46.4517 24.6985 46.2597 24.474C46.0677 24.2496 45.9717 23.9366 45.9717 23.5349V13.2758C45.9717 12.8741 46.073 12.5611 46.2757 12.3367C46.489 12.1122 46.777 12 47.1397 12C47.4597 12 47.7103 12.0709 47.8917 12.2126C48.0837 12.3426 48.2597 12.5729 48.4197 12.9037L52.1157 20.381H51.5717L55.2677 12.9037C55.4277 12.5729 55.5983 12.3426 55.7797 12.2126C55.9717 12.0709 56.2223 12 56.5317 12C56.8943 12 57.1717 12.1122 57.3637 12.3367C57.5663 12.5611 57.6677 12.8741 57.6677 13.2758V23.5349C57.6677 23.9366 57.5717 24.2496 57.3797 24.474C57.1877 24.6985 56.9103 24.8107 56.5477 24.8107C56.185 24.8107 55.9023 24.6985 55.6997 24.474C55.5077 24.2496 55.4117 23.9366 55.4117 23.5349V16.3588H55.7637L52.7877 22.2592C52.6597 22.4836 52.521 22.6549 52.3717 22.773C52.233 22.8793 52.0463 22.9325 51.8117 22.9325C51.577 22.9325 51.385 22.8734 51.2357 22.7553C51.0863 22.6372 50.953 22.4718 50.8357 22.2592L47.8277 16.3411H48.2117V23.5349C48.2117 23.9366 48.1157 24.2496 47.9237 24.474C47.7423 24.6985 47.465 24.8107 47.0917 24.8107Z" fill="#0F172A"/>
</svg>
