<svg width="40" height="40" viewBox="0 0 40 40" fill="none" xmlns="http://www.w3.org/2000/svg">
<path d="M14.0523 39.8252C13.7561 39.6805 13.5096 39.4526 13.3384 39.1679L11.4649 36.055L7.85673 36.4832C7.52693 36.5226 7.19597 36.467 6.89973 36.3224C6.5005 36.1268 6.19616 35.7889 6.04225 35.3711C5.87909 34.9279 5.90338 34.45 6.11283 34.023L13.7029 18.5236L23.9429 23.5388L16.3528 39.0383C15.9351 39.8877 14.904 40.2418 14.0523 39.8252Z" fill="url(#paint0_linear_2026_2991)"/>
<path d="M14.2918 38.8752L12.1741 35.3573C12.0503 35.1513 11.8177 35.0379 11.5793 35.0657L7.50252 35.5506C7.02229 35.6073 6.67051 35.1108 6.88227 34.6769L14.2038 19.7271L22.6826 23.8791L15.361 38.8289C15.1504 39.2617 14.5417 39.2883 14.2918 38.8752Z" fill="url(#paint1_linear_2026_2991)"/>
<path opacity="0.3" d="M14.5303 39.4584C14.234 39.3138 13.9875 39.0858 13.8163 38.8011L11.9428 35.6883L8.33464 36.1164C8.00484 36.1558 7.67389 36.1002 7.37765 35.9556C6.97841 35.76 6.67407 35.4221 6.52017 35.0044C6.357 34.5612 6.38131 34.0832 6.59076 33.6562L13.9436 18.6405L13.7029 18.5225L6.11283 34.0219C5.90338 34.4489 5.87909 34.9268 6.04225 35.37C6.19616 35.7889 6.5005 36.1257 6.89973 36.3213C7.19597 36.4659 7.52693 36.5215 7.85673 36.4821L11.4649 36.054L13.3384 39.1668C13.5096 39.4515 13.7561 39.6783 14.0523 39.8241C14.7524 40.1666 15.5683 39.9826 16.0693 39.4364C15.603 39.676 15.036 39.7061 14.5303 39.4584Z" fill="url(#paint2_linear_2026_2991)"/>
<path opacity="0.8" d="M14.2918 39.1831L12.1741 35.6653C12.0503 35.4593 11.8177 35.3459 11.5793 35.3736L7.50252 35.8585C7.02229 35.9152 6.67051 35.4188 6.88227 34.9848L14.2038 20.035L22.6826 24.187L15.361 39.1368C15.1504 39.5708 14.5417 39.5974 14.2918 39.1831Z" fill="#FFC72E"/>
<path d="M14.2918 38.8752L12.1741 35.3573C12.0503 35.1513 11.8177 35.0379 11.5793 35.0657L7.50252 35.5506C7.02229 35.6073 6.67051 35.1108 6.88227 34.6769L14.2038 19.7271L22.6826 23.8791L15.361 38.8289C15.1504 39.2617 14.5417 39.2883 14.2918 38.8752Z" fill="url(#paint3_linear_2026_2991)"/>
<path opacity="0.3" d="M13.7032 18.5225L8.61621 28.9094C8.90204 29.1409 9.22489 29.3283 9.59519 29.4198L13.9347 30.4913C14.1835 30.5527 14.4219 30.651 14.6417 30.7841L18.4674 33.095C18.6757 33.2211 18.8979 33.3114 19.127 33.3727L23.9432 23.5377L13.7032 18.5225Z" fill="#BA0000"/>
<path d="M25.5819 39.8252C25.8782 39.6805 26.1247 39.4526 26.2959 39.1679L28.1694 36.055L31.7776 36.4832C32.1074 36.5226 32.4383 36.467 32.7346 36.3224C33.1338 36.1268 33.4381 35.7889 33.592 35.3711C33.7552 34.9279 33.7309 34.45 33.5215 34.023L25.9314 18.5236L15.6914 23.5388L23.2814 39.0383C23.6992 39.8877 24.7302 40.2418 25.5819 39.8252Z" fill="url(#paint4_linear_2026_2991)"/>
<path d="M25.3422 38.8752L27.4587 35.3573C27.5825 35.1513 27.8151 35.0379 28.0535 35.0657L32.1303 35.5506C32.6105 35.6073 32.9623 35.1108 32.7505 34.6769L25.429 19.7271L16.9502 23.8791L24.2718 38.8289C24.4835 39.2617 25.0922 39.2883 25.3422 38.8752Z" fill="url(#paint5_linear_2026_2991)"/>
<path opacity="0.3" d="M25.1045 39.4584C25.4007 39.3138 25.6472 39.0858 25.8185 38.8011L27.692 35.6883L31.3001 36.1164C31.6299 36.1558 31.9609 36.1002 32.2571 35.9556C32.6563 35.76 32.9607 35.4221 33.1146 35.0044C33.2778 34.5612 33.2535 34.0832 33.044 33.6562L25.6912 18.6405L25.9319 18.5225L33.5219 34.0219C33.7314 34.4489 33.7557 34.9268 33.5925 35.37C33.4386 35.7889 33.1343 36.1257 32.735 36.3213C32.4388 36.4659 32.1078 36.5215 31.778 36.4821L28.1699 36.054L26.2964 39.1668C26.1251 39.4515 25.8787 39.6783 25.5824 39.8241C24.8835 40.1666 24.0677 39.9826 23.5654 39.4364C24.0318 39.676 24.5988 39.7061 25.1045 39.4584Z" fill="url(#paint6_linear_2026_2991)"/>
<path opacity="0.8" d="M25.3422 39.1831L27.4587 35.6653C27.5825 35.4593 27.8151 35.3459 28.0535 35.3736L32.1303 35.8585C32.6105 35.9152 32.9623 35.4188 32.7505 34.9848L25.429 20.035L16.9502 24.187L24.2718 39.1368C24.4835 39.5708 25.0922 39.5974 25.3422 39.1831Z" fill="#FFC72E"/>
<path d="M25.3422 38.8752L27.4587 35.3573C27.5825 35.1513 27.8151 35.0379 28.0535 35.0657L32.1303 35.5506C32.6105 35.6073 32.9623 35.1108 32.7505 34.6769L25.429 19.7271L16.9502 23.8791L24.2718 38.8289C24.4835 39.2617 25.0922 39.2883 25.3422 38.8752Z" fill="url(#paint7_linear_2026_2991)"/>
<path opacity="0.3" d="M25.9324 18.5225L31.0194 28.9094C30.7336 29.1409 30.4107 29.3283 30.0404 29.4198L25.701 30.4913C25.4522 30.5527 25.2138 30.651 24.9939 30.7841L21.1682 33.095C20.9599 33.2211 20.7378 33.3114 20.5086 33.3727L15.6924 23.5377L25.9324 18.5225Z" fill="#BA0000"/>
<path d="M21.3179 0.36712L25.1435 2.67804C25.3634 2.81112 25.6018 2.90948 25.8506 2.97081L30.1901 4.04237C31.1089 4.26918 31.8263 4.98664 32.0531 5.90545L33.1247 10.2449C33.186 10.4937 33.2844 10.7321 33.4175 10.952L35.7284 14.7777C36.2179 15.5877 36.2179 16.6026 35.7284 17.4126L33.4175 21.2383C33.2844 21.4581 33.186 21.6965 33.1247 21.9453L32.0531 26.2848C31.8263 27.2036 31.1089 27.9211 30.1901 28.1479L25.8506 29.2194C25.6018 29.2808 25.3634 29.3791 25.1435 29.5122L21.3179 31.8231C20.5078 32.3126 19.493 32.3126 18.6829 31.8231L14.8572 29.5122C14.6374 29.3791 14.399 29.2808 14.1502 29.2194L9.81072 28.1479C8.89191 27.9211 8.17445 27.2036 7.94764 26.2848L6.87608 21.9453C6.81475 21.6965 6.71638 21.4581 6.5833 21.2383L4.27239 17.4126C3.7829 16.6026 3.7829 15.5877 4.27239 14.7777L6.5833 10.952C6.71638 10.7321 6.81475 10.4937 6.87608 10.2449L7.94764 5.90545C8.17445 4.98664 8.89191 4.26918 9.81072 4.04237L14.1502 2.97081C14.399 2.90948 14.6374 2.81112 14.8572 2.67804L18.6829 0.36712C19.4941 -0.122373 20.5078 -0.122373 21.3179 0.36712Z" fill="url(#paint8_linear_2026_2991)"/>
<g opacity="0.4">
<path d="M7.31532 8.84735L8.18899 5.30634C8.08715 5.4938 8.00268 5.69284 7.95061 5.90576L7.09082 9.38892C7.18108 9.21418 7.26903 9.03828 7.31532 8.84735Z" fill="url(#paint9_linear_2026_2991)"/>
<path d="M33.8561 19.8405C33.723 20.0604 33.6247 20.2988 33.5633 20.5476L33.3516 21.4039C33.3793 21.3507 33.3897 21.2905 33.4198 21.2384L35.7308 17.4127C35.968 17.0205 36.0849 16.5796 36.0918 16.1375L33.8561 19.8405Z" fill="url(#paint10_linear_2026_2991)"/>
<path d="M30.6281 26.7505L26.2886 27.8209C26.0398 27.8822 25.8015 27.9806 25.5816 28.1136L21.7559 30.4245C20.9459 30.914 19.931 30.914 19.121 30.4245L15.2953 28.1136C15.0754 27.9806 14.837 27.8822 14.5882 27.8209L10.2488 26.7505C9.32995 26.5236 8.61249 25.8062 8.38568 24.8874L7.31412 20.5479C7.25279 20.2991 7.15327 20.0607 7.02135 19.8408L4.71044 16.0152C4.45817 15.5974 4.34128 15.1253 4.34938 14.6555L4.27532 14.7793C3.78583 15.5893 3.78583 16.6042 4.27532 17.4142L6.58625 21.2399C6.71933 21.4598 6.81768 21.6981 6.87901 21.9469L7.95057 26.2864C8.17738 27.2052 8.89484 27.9227 9.81365 28.1495L14.1531 29.2211C14.4019 29.2824 14.6403 29.3808 14.8602 29.5138L18.6859 31.8247C19.4959 32.3142 20.5108 32.3142 21.3208 31.8247L25.1465 29.5138C25.3663 29.3808 25.6047 29.2824 25.8535 29.2211L30.193 28.1495C31.1118 27.9227 31.8293 27.2052 32.0561 26.2864L32.2528 25.4879C31.9161 26.1094 31.334 26.5757 30.6281 26.7505Z" fill="url(#paint11_linear_2026_2991)"/>
</g>
<path d="M21.1468 2.42022L24.4737 4.43026C24.6646 4.54598 24.8718 4.63161 25.0882 4.68485L28.8618 5.61639C29.6602 5.81311 30.2851 6.438 30.4818 7.23646L31.4134 11.0101C31.4666 11.2265 31.5523 11.4336 31.668 11.6245L33.678 14.9515C34.1039 15.6562 34.1039 16.538 33.678 17.2427L31.668 20.5696C31.5523 20.7606 31.4666 20.9677 31.4134 21.1841L30.4818 24.9577C30.2851 25.7562 29.6602 26.3799 28.8618 26.5778L25.0882 27.5093C24.8718 27.5626 24.6646 27.6482 24.4737 27.7639L21.1468 29.774C20.442 30.1998 19.5602 30.1998 18.8555 29.774L15.5286 27.7639C15.3376 27.6482 15.1305 27.5626 14.9141 27.5093L11.1405 26.5778C10.342 26.3811 9.71715 25.7573 9.52043 24.9577L8.5889 21.1841C8.53567 20.9677 8.45003 20.7606 8.33431 20.5696L6.32427 17.2427C5.89842 16.538 5.89842 15.6562 6.32427 14.9515L8.33431 11.6245C8.45003 11.4336 8.53567 11.2265 8.5889 11.0101L9.52043 7.23646C9.71715 6.438 10.342 5.81427 11.1405 5.61639L14.9141 4.68485C15.1305 4.63161 15.3376 4.54598 15.5286 4.43026L18.8555 2.42022C19.5602 1.99437 20.442 1.99437 21.1468 2.42022Z" fill="url(#paint12_linear_2026_2991)"/>
<path opacity="0.3" d="M33.6754 14.9503L31.6654 11.6234C31.5497 11.4324 31.464 11.2253 31.4108 11.0089L30.4792 7.2353C30.2825 6.43684 29.6576 5.81311 28.8592 5.61523L25.0856 4.68369C24.8692 4.63045 24.662 4.54482 24.4711 4.4291L21.1442 2.41906C20.4394 1.99321 19.5576 1.99321 18.8529 2.41906L15.526 4.4291C15.335 4.54482 15.1279 4.63045 14.9115 4.68369L11.1379 5.61523C10.5211 5.76798 10.0143 6.17762 9.72266 6.72266C10.0247 6.2783 10.4714 5.93924 11.0106 5.80617L14.7842 4.87462C15.0006 4.82139 15.2078 4.73576 15.3987 4.62004L18.7256 2.60999C19.4304 2.18415 20.3122 2.18415 21.0169 2.60999L24.3438 4.62004C24.5348 4.73576 24.7419 4.82139 24.9583 4.87462L28.7307 5.80617C29.5292 6.00289 30.1529 6.62661 30.3508 7.42623L31.2823 11.1998C31.3356 11.4162 31.4212 11.6234 31.5369 11.8143L33.5458 15.1412C33.9717 15.846 33.9717 16.7278 33.5458 17.4325L31.5369 20.7594C31.4212 20.9504 31.3356 21.1575 31.2823 21.3739L30.3508 25.1475C30.3057 25.3292 30.2328 25.4993 30.1471 25.6601C30.2929 25.4461 30.4144 25.2158 30.4792 24.9566L31.4108 21.183C31.464 20.9666 31.5497 20.7594 31.6654 20.5685L33.6754 17.2416C34.1013 16.5368 34.1013 15.6539 33.6754 14.9503Z" fill="url(#paint13_linear_2026_2991)"/>
<path opacity="0.3" d="M21.0178 3.18863L24.2117 5.11767C24.3945 5.22876 24.5936 5.31092 24.8019 5.36184L28.425 6.25635C29.1923 6.44613 29.7917 7.04439 29.9803 7.81161L30.8748 11.4348C30.9257 11.6431 31.009 11.8421 31.119 12.025L33.048 15.2188C33.4565 15.8946 33.4565 16.7417 33.048 17.4186L31.119 20.6125C31.0079 20.7953 30.9257 20.9944 30.8748 21.2027L29.9803 24.8258C29.7905 25.5931 29.1923 26.1925 28.425 26.3811L24.8019 27.2756C24.5936 27.3265 24.3945 27.4099 24.2117 27.5198L21.0178 29.4488C20.3409 29.8573 19.495 29.8573 18.818 29.4488L15.6241 27.5198C15.4413 27.4087 15.2423 27.3265 15.034 27.2756L11.4108 26.3811C10.6436 26.1913 10.0453 25.5931 9.85553 24.8258L8.96103 21.2027C8.91011 20.9944 8.8268 20.7953 8.71686 20.6125L6.78781 17.4186C6.37932 16.7428 6.37932 15.8946 6.78781 15.2188L8.71686 12.025C8.82795 11.8421 8.91011 11.6431 8.96103 11.4348L9.85553 7.81161C10.0453 7.04439 10.6436 6.44498 11.4108 6.25635L15.034 5.36184C15.2423 5.31092 15.4413 5.22761 15.6241 5.11767L18.818 3.18863C19.4938 2.78014 20.3409 2.78014 21.0178 3.18863Z" fill="#730300"/>
<path d="M21.1018 2.96372L24.2957 4.89276C24.4785 5.00385 24.6775 5.08601 24.8858 5.13692L28.509 6.03144C29.2762 6.22122 29.8745 6.81948 30.0643 7.5867L30.9588 11.2099C31.0097 11.4182 31.093 11.6172 31.203 11.8001L33.132 14.9939C33.5405 15.6709 33.5405 16.5179 33.132 17.1937L31.203 20.3876C31.0919 20.5704 31.0097 20.7695 30.9588 20.9778L30.0643 24.6009C29.8745 25.3681 29.2762 25.9676 28.509 26.1562L24.8858 27.0507C24.6775 27.1016 24.4785 27.1849 24.2957 27.2949L21.1018 29.2239C20.4249 29.6324 19.579 29.6324 18.902 29.2239L15.7081 27.2949C15.5253 27.1838 15.3263 27.1016 15.118 27.0507L11.4948 26.1562C10.7276 25.9664 10.1281 25.3681 9.93952 24.6009L9.04501 20.9778C8.9941 20.7695 8.91078 20.5704 8.80085 20.3876L6.8718 17.1937C6.46331 16.5179 6.46331 15.6709 6.8718 14.9939L8.80085 11.8001C8.91194 11.6172 8.9941 11.4182 9.04501 11.2099L9.93952 7.5867C10.1293 6.81948 10.7276 6.22006 11.4948 6.03144L15.118 5.13692C15.3263 5.08601 15.5253 5.00269 15.7081 4.89276L18.902 2.96372C19.5778 2.55523 20.4249 2.55523 21.1018 2.96372Z" fill="url(#paint14_linear_2026_2991)"/>
<g opacity="0.4">
<path d="M9.05509 11.2202C9.16618 11.0374 9.24834 10.8383 9.29925 10.63L10.1938 7.00684C10.1961 6.99874 10.2007 6.99064 10.203 6.98254C10.0873 7.16885 9.99241 7.36905 9.93803 7.58776L9.04352 11.2109C9.03658 11.241 9.01689 11.2665 9.00879 11.2954L9.05509 11.2202Z" fill="url(#paint15_linear_2026_2991)"/>
<path d="M31.4575 19.8076C31.3626 19.965 31.3001 20.1374 31.248 20.3133L33.132 17.1946C33.235 17.0234 33.3113 16.8417 33.3623 16.6542L31.4575 19.8076Z" fill="url(#paint16_linear_2026_2991)"/>
<path d="M28.7636 25.5765L25.1404 26.471C24.9321 26.522 24.7331 26.6053 24.5503 26.7152L21.3564 28.6443C20.6795 29.0527 19.8335 29.0527 19.1566 28.6443L15.9627 26.7152C15.7799 26.6041 15.5808 26.522 15.3726 26.471L11.7494 25.5765C10.9822 25.3868 10.3827 24.7885 10.1941 24.0213L9.2996 20.3981C9.24868 20.1898 9.16537 19.9908 9.05543 19.8079L7.12638 16.6141C6.82088 16.1084 6.74452 15.5089 6.89611 14.9547L6.8718 14.9951C6.46331 15.6721 6.46331 16.5192 6.8718 17.195L8.80085 20.3888C8.91194 20.5717 8.9941 20.7707 9.04501 20.979L9.93952 24.6022C10.1293 25.3694 10.7276 25.9688 11.4948 26.1574L15.118 27.052C15.3263 27.1029 15.5253 27.1862 15.7081 27.2961L18.902 29.2263C19.579 29.6348 20.4249 29.6348 21.1018 29.2263L24.2957 27.2961C24.4785 27.185 24.6775 27.1029 24.8858 27.052L28.509 26.1574C29.2681 25.97 29.8583 25.381 30.055 24.6265C29.7657 25.0917 29.3109 25.4411 28.7636 25.5765Z" fill="url(#paint17_linear_2026_2991)"/>
</g>
<path opacity="0.3" d="M20.959 4.66976L23.7386 6.34885C23.8982 6.4449 24.0718 6.51665 24.2523 6.56178L27.4045 7.33941C28.0722 7.50373 28.593 8.02562 28.7573 8.69217L29.5349 11.8444C29.5789 12.0249 29.6518 12.1985 29.7479 12.3582L31.4269 15.1377C31.7822 15.7256 31.7822 16.4627 31.4269 17.0517L29.7479 19.8313C29.6518 19.991 29.5801 20.1646 29.5349 20.3451L28.7573 23.4973C28.593 24.165 28.0711 24.6858 27.4045 24.8512L24.2523 25.6289C24.0718 25.6728 23.8982 25.7457 23.7386 25.8418L20.959 27.5209C20.3711 27.8761 19.6328 27.8761 19.045 27.5209L16.2654 25.8418C16.1057 25.7457 15.9321 25.674 15.7516 25.6289L12.5994 24.8512C11.9317 24.6869 11.411 24.165 11.2466 23.4973L10.469 20.3451C10.4239 20.1646 10.3521 19.991 10.2561 19.8313L8.57699 17.0517C8.22173 16.4627 8.22173 15.7256 8.57699 15.1377L10.2561 12.3582C10.3521 12.1985 10.4239 12.026 10.469 11.8444L11.2466 8.69217C11.411 8.02447 11.9329 7.50373 12.5994 7.33941L15.7516 6.56178C15.9321 6.51665 16.1057 6.4449 16.2654 6.34885L19.045 4.66976C19.6328 4.31451 20.37 4.31451 20.959 4.66976Z" fill="#B93E00"/>
<path d="M20.9357 4.95184L23.647 6.58927C23.802 6.683 23.971 6.75359 24.148 6.79641L27.2227 7.55552C27.8742 7.71637 28.3822 8.22439 28.5431 8.87589L29.3022 11.9506C29.3462 12.1276 29.4156 12.2954 29.5093 12.4516L31.1467 15.1629C31.4939 15.7369 31.4939 16.4555 31.1467 17.0295L29.5093 19.7408C29.4156 19.8958 29.345 20.0648 29.3022 20.2418L28.5431 23.3165C28.3822 23.968 27.8742 24.476 27.2227 24.6369L24.148 25.396C23.971 25.44 23.8032 25.5094 23.647 25.6031L20.9357 27.2406C20.3617 27.5877 19.6431 27.5877 19.0691 27.2406L16.3578 25.6031C16.2027 25.5094 16.0338 25.4388 15.8567 25.396L12.7821 24.6369C12.1306 24.476 11.6226 23.968 11.4617 23.3165L10.7026 20.2418C10.6586 20.066 10.5892 19.897 10.4955 19.7408L8.85802 17.0295C8.51087 16.4555 8.51087 15.7369 8.85802 15.1629L10.4955 12.4516C10.5892 12.2965 10.6598 12.1276 10.7026 11.9506L11.4617 8.87589C11.6226 8.22439 12.1306 7.71637 12.7821 7.55552L15.8567 6.79641C16.0326 6.75243 16.2016 6.683 16.3578 6.58927L19.0691 4.95184C19.6419 4.60468 20.3617 4.60468 20.9357 4.95184Z" fill="url(#paint18_linear_2026_2991)"/>
<g opacity="0.2">
<path d="M11.2556 6.63068L14.8788 5.73617C15.0871 5.68525 15.2861 5.60194 15.4689 5.492L18.6628 3.5618C19.3397 3.15331 20.1868 3.15331 20.8626 3.5618L24.0565 5.492C24.2393 5.60309 24.4383 5.68525 24.6466 5.73617L28.2698 6.63068C29.037 6.82046 29.6365 7.41873 29.8251 8.18595L30.7196 11.8091C30.7705 12.0174 30.8538 12.2165 30.9637 12.3993L32.8928 15.5932C33.1856 16.078 33.2596 16.6497 33.1323 17.1855C33.5362 16.5108 33.535 15.6684 33.1289 14.9949L31.1998 11.801C31.0887 11.6182 31.0066 11.4192 30.9557 11.2109L30.0611 7.58769C29.8714 6.82047 29.2731 6.22104 28.5059 6.03242L24.8827 5.1379C24.6744 5.08698 24.4754 5.00367 24.2925 4.89373L21.0987 2.96469C20.4217 2.5562 19.5758 2.5562 18.8988 2.96469L15.705 4.89373C15.5222 5.00483 15.3231 5.08698 15.1148 5.1379L11.4916 6.03242C10.7244 6.22219 10.125 6.82047 9.93639 7.58769L9.9248 7.63397C10.2106 7.13984 10.6862 6.77186 11.2556 6.63068Z" fill="#D90000"/>
<path d="M6.63336 15.5942L8.56239 12.4004C8.67349 12.2175 8.75564 12.0185 8.80656 11.8102L8.82508 11.7373C8.81351 11.757 8.81003 11.7813 8.79846 11.801L6.86942 14.9948C6.7537 15.1857 6.67964 15.3917 6.62988 15.6023C6.63104 15.6 6.63105 15.5965 6.63336 15.5942Z" fill="#D90000"/>
<path d="M30.7199 21.5779L29.8369 25.1548C29.9353 24.9835 30.0128 24.7995 30.0614 24.6017L30.9374 21.0514C30.8448 21.218 30.7661 21.3928 30.7199 21.5779Z" fill="#D90000"/>
</g>
<path opacity="0.5" d="M35.7274 14.7777L33.4164 10.952C33.2833 10.7321 33.185 10.4937 33.1237 10.2449L32.0521 5.90545C31.8253 4.98664 31.1078 4.26918 30.189 4.04237L25.8495 2.97081C25.6007 2.90948 25.3624 2.81112 25.1425 2.67804L21.3168 0.36712C20.5068 -0.122373 19.4919 -0.122373 18.6819 0.36712L14.8562 2.67804C14.6363 2.81112 14.3979 2.90948 14.1492 2.97081L9.80967 4.04237C9.0899 4.21942 8.50435 4.70313 8.16992 5.34306C8.50898 4.95193 8.95103 4.65453 9.47177 4.52608L13.8112 3.45451C14.06 3.39318 14.2984 3.29482 14.5183 3.16174L18.344 0.850826C19.154 0.361333 20.1689 0.361333 20.9789 0.850826L24.8046 3.16174C25.0245 3.29482 25.2628 3.39318 25.5116 3.45451L29.8511 4.52608C30.7699 4.75289 31.4874 5.47035 31.7142 6.38916L32.7858 10.7286C32.8471 10.9774 32.9455 11.2158 33.0785 11.4357L35.3894 15.2614C35.8789 16.0714 35.8789 17.0863 35.3894 17.8963L33.0785 21.722C32.9455 21.9418 32.8471 22.1802 32.7858 22.429L31.7142 26.7685C31.6644 26.9687 31.5823 27.1538 31.4897 27.3309C31.7489 27.0323 31.9526 26.6829 32.0509 26.2848L33.1225 21.9453C33.1838 21.6965 33.2822 21.4581 33.4153 21.2383L35.7262 17.4126C36.2168 16.6026 36.2168 15.5877 35.7274 14.7777Z" fill="#FFD770"/>
<path opacity="0.4" d="M30.3717 27.8574L26.0323 28.9278C25.7835 28.9891 25.5451 29.0875 25.3252 29.2205L21.4995 31.5315C20.6895 32.0209 19.6746 32.0209 18.8646 31.5315L15.0389 29.2205C14.8191 29.0875 14.5807 28.9891 14.3319 28.9278L9.99239 27.8574C9.07358 27.6306 8.35612 26.9131 8.12931 25.9943L7.05776 21.6548C6.99643 21.406 6.89806 21.1676 6.76498 20.9478L4.45407 17.1221C3.96458 16.312 3.96458 15.2972 4.45407 14.4871L6.76498 10.6615C6.89806 10.4416 6.99643 10.2032 7.05776 9.95442L8.12931 5.61494C8.17676 5.42401 8.2566 5.24811 8.34339 5.07684C8.16981 5.32795 8.02285 5.59874 7.94764 5.9054L6.87608 10.2449C6.81475 10.4937 6.71638 10.7321 6.5833 10.9519L4.27239 14.7776C3.7829 15.5876 3.7829 16.6025 4.27239 17.4125L6.5833 21.2382C6.71638 21.4581 6.81475 21.6965 6.87608 21.9453L7.94764 26.2847C8.17445 27.2036 8.89191 27.921 9.81072 28.1478L14.1502 29.2194C14.399 29.2807 14.6374 29.3791 14.8572 29.5122L18.6829 31.8231C19.493 32.3126 20.5078 32.3126 21.3179 31.8231L25.1435 29.5122C25.3634 29.3791 25.6018 29.2807 25.8506 29.2194L30.1901 28.1478C30.9179 27.9685 31.5081 27.4743 31.8391 26.8228C31.4919 27.3239 30.9851 27.7069 30.3717 27.8574Z" fill="#FFE68B"/>
<g filter="url(#filter0_d_2026_2991)">
<path d="M22.7518 9.12274V22.2184H19.9921V11.7507H19.913L16.9247 13.6403V11.1794L20.159 9.12274H22.7518Z" fill="url(#paint19_linear_2026_2991)"/>
</g>
<defs>
<filter id="filter0_d_2026_2991" x="14.9248" y="8.12274" width="9.82715" height="17.0957" filterUnits="userSpaceOnUse" color-interpolation-filters="sRGB">
<feFlood flood-opacity="0" result="BackgroundImageFix"/>
<feColorMatrix in="SourceAlpha" type="matrix" values="0 0 0 0 0 0 0 0 0 0 0 0 0 0 0 0 0 0 127 0" result="hardAlpha"/>
<feOffset dy="1"/>
<feGaussianBlur stdDeviation="1"/>
<feComposite in2="hardAlpha" operator="out"/>
<feColorMatrix type="matrix" values="0 0 0 0 0 0 0 0 0 0 0 0 0 0 0 0 0 0 0.25 0"/>
<feBlend mode="normal" in2="BackgroundImageFix" result="effect1_dropShadow_2026_2991"/>
<feBlend mode="normal" in="SourceGraphic" in2="effect1_dropShadow_2026_2991" result="shape"/>
</filter>
<linearGradient id="paint0_linear_2026_2991" x1="20.7401" y1="33.6306" x2="6.46427" y2="23.7285" gradientUnits="userSpaceOnUse">
<stop stop-color="#E01919"/>
<stop offset="1" stop-color="#FF602B"/>
</linearGradient>
<linearGradient id="paint1_linear_2026_2991" x1="25.2204" y1="25.1903" x2="2.96822" y2="34.0855" gradientUnits="userSpaceOnUse">
<stop stop-color="#E01919"/>
<stop offset="1" stop-color="#FF602B"/>
</linearGradient>
<linearGradient id="paint2_linear_2026_2991" x1="20.2423" y1="34.305" x2="5.99086" y2="24.4198" gradientUnits="userSpaceOnUse">
<stop stop-color="#E01919"/>
<stop offset="1" stop-color="#FF602B"/>
</linearGradient>
<linearGradient id="paint3_linear_2026_2991" x1="19.2516" y1="25.0384" x2="10.4431" y2="33.448" gradientUnits="userSpaceOnUse">
<stop stop-color="#E01919"/>
<stop offset="1" stop-color="#FF792B"/>
</linearGradient>
<linearGradient id="paint4_linear_2026_2991" x1="18.8945" y1="33.6306" x2="33.1703" y2="23.7286" gradientUnits="userSpaceOnUse">
<stop stop-color="#E01919"/>
<stop offset="1" stop-color="#FF602B"/>
</linearGradient>
<linearGradient id="paint5_linear_2026_2991" x1="14.4139" y1="25.1904" x2="36.6659" y2="34.0854" gradientUnits="userSpaceOnUse">
<stop stop-color="#E01919"/>
<stop offset="1" stop-color="#FF602B"/>
</linearGradient>
<linearGradient id="paint6_linear_2026_2991" x1="19.3926" y1="34.3049" x2="33.6441" y2="24.4198" gradientUnits="userSpaceOnUse">
<stop stop-color="#E01919"/>
<stop offset="1" stop-color="#FF602B"/>
</linearGradient>
<linearGradient id="paint7_linear_2026_2991" x1="20.3827" y1="25.0384" x2="29.1911" y2="33.4479" gradientUnits="userSpaceOnUse">
<stop stop-color="#DD3F00"/>
<stop offset="1" stop-color="#FF792B"/>
</linearGradient>
<linearGradient id="paint8_linear_2026_2991" x1="12.0012" y1="28.0611" x2="28.89" y2="2.79896" gradientUnits="userSpaceOnUse">
<stop stop-color="#FFC64F"/>
<stop offset="0.2772" stop-color="#E06919"/>
<stop offset="0.7073" stop-color="#FFC640"/>
<stop offset="1" stop-color="#FFA02B"/>
</linearGradient>
<linearGradient id="paint9_linear_2026_2991" x1="6.62899" y1="8.86043" x2="8.76414" y2="5.66659" gradientUnits="userSpaceOnUse">
<stop stop-color="#FFC64F"/>
<stop offset="0.2772" stop-color="#E06919"/>
<stop offset="0.7073" stop-color="#FFC640"/>
<stop offset="1" stop-color="#FFA02B"/>
</linearGradient>
<linearGradient id="paint10_linear_2026_2991" x1="33.2316" y1="21.0005" x2="36.3784" y2="16.2935" gradientUnits="userSpaceOnUse">
<stop stop-color="#FFC64F"/>
<stop offset="0.2772" stop-color="#E06919"/>
<stop offset="0.7073" stop-color="#FFC640"/>
<stop offset="1" stop-color="#FFA02B"/>
</linearGradient>
<linearGradient id="paint11_linear_2026_2991" x1="12.4173" y1="29.2604" x2="20.3293" y2="17.4258" gradientUnits="userSpaceOnUse">
<stop stop-color="#FFC64F"/>
<stop offset="0.2772" stop-color="#E06919"/>
<stop offset="0.7073" stop-color="#FFC640"/>
<stop offset="1" stop-color="#FFA02B"/>
</linearGradient>
<linearGradient id="paint12_linear_2026_2991" x1="29.3391" y1="5.26703" x2="9.92349" y2="27.7814" gradientUnits="userSpaceOnUse">
<stop offset="0.2772" stop-color="#E06919"/>
<stop offset="1" stop-color="#E04719"/>
</linearGradient>
<linearGradient id="paint13_linear_2026_2991" x1="29.2239" y1="5.38032" x2="19.0884" y2="17.1335" gradientUnits="userSpaceOnUse">
<stop offset="0.2772" stop-color="#E06919"/>
<stop offset="1" stop-color="#E04719"/>
</linearGradient>
<linearGradient id="paint14_linear_2026_2991" x1="38.8019" y1="8.91343" x2="-3.66064" y2="25.1335" gradientUnits="userSpaceOnUse">
<stop stop-color="#FFC64F"/>
<stop offset="0.2772" stop-color="#E06919"/>
<stop offset="0.7073" stop-color="#FFC640"/>
<stop offset="1" stop-color="#FFA02B"/>
</linearGradient>
<linearGradient id="paint15_linear_2026_2991" x1="11.5718" y1="8.38796" x2="7.13181" y2="10.084" gradientUnits="userSpaceOnUse">
<stop stop-color="#FFC64F"/>
<stop offset="0.2772" stop-color="#E06919"/>
<stop offset="0.7073" stop-color="#FFC640"/>
<stop offset="1" stop-color="#FFA02B"/>
</linearGradient>
<linearGradient id="paint16_linear_2026_2991" x1="34.7357" y1="17.5552" x2="29.2471" y2="19.6519" gradientUnits="userSpaceOnUse">
<stop stop-color="#FFC64F"/>
<stop offset="0.2772" stop-color="#E06919"/>
<stop offset="0.7073" stop-color="#FFC640"/>
<stop offset="1" stop-color="#FFA02B"/>
</linearGradient>
<linearGradient id="paint17_linear_2026_2991" x1="32.3783" y1="15.0875" x2="0.530375" y2="27.253" gradientUnits="userSpaceOnUse">
<stop stop-color="#FFC64F"/>
<stop offset="0.2772" stop-color="#E06919"/>
<stop offset="0.7073" stop-color="#FFC640"/>
<stop offset="1" stop-color="#FFA02B"/>
</linearGradient>
<linearGradient id="paint18_linear_2026_2991" x1="29.5376" y1="26.4765" x2="11.0229" y2="6.77902" gradientUnits="userSpaceOnUse">
<stop stop-color="#FFA02B"/>
<stop offset="0.384817" stop-color="#B64900"/>
<stop offset="0.736312" stop-color="#FFC64F"/>
<stop offset="1" stop-color="#D05502"/>
</linearGradient>
<linearGradient id="paint19_linear_2026_2991" x1="19.9586" y1="10.2489" x2="21.6449" y2="40.6153" gradientUnits="userSpaceOnUse">
<stop stop-color="#F7E436"/>
<stop offset="1" stop-color="#CE7C1D"/>
</linearGradient>
</defs>
</svg>
