<svg width="22" height="22" viewBox="0 0 22 22" fill="none" xmlns="http://www.w3.org/2000/svg">
<path fill-rule="evenodd" clip-rule="evenodd" d="M10.75 0C16.6871 0 21.5 4.81294 21.5 10.75C21.5 16.6871 16.6871 21.5 10.75 21.5C4.81294 21.5 0 16.6871 0 10.75C0 4.81294 4.81294 0 10.75 0ZM5.75 10.7559C5.75 11.3081 6.19772 11.7559 6.75 11.7559H11.25V12.3384C11.2499 12.514 11.2497 12.7297 11.2718 12.9061L11.2722 12.9095C11.288 13.0359 11.3598 13.612 11.9254 13.8863C12.4922 14.1613 12.9924 13.8593 13.1006 13.794L13.5691 13.4549C13.9449 13.1602 14.4594 12.7546 14.8504 12.3741C15.0455 12.1843 15.2467 11.967 15.4056 11.7361C15.5468 11.5309 15.75 11.1807 15.75 10.75C15.75 10.3193 15.5468 9.9691 15.4056 9.7639C15.2467 9.533 15.0455 9.3157 14.8504 9.1259C14.4594 8.74545 13.9449 8.33975 13.5691 8.04511L13.1006 7.70597C12.9924 7.64065 12.4923 7.33872 11.9254 7.61368C11.3598 7.88804 11.288 8.46408 11.2722 8.59053L11.2718 8.59387C11.2497 8.7703 11.2499 8.986 11.25 9.1616V9.7559H6.75C6.19772 9.7559 5.75 10.2036 5.75 10.7559Z" fill="#DC2626"/>
</svg>
